<?xml version="1.0" encoding="UTF-8"?>
<svg id="_레이어_1" data-name="레이어_1" xmlns="http://www.w3.org/2000/svg" version="1.1" viewBox="0 0 1920 527.54">
  
  <defs>
    
  </defs>
  <path class="st0" d="M1739.23,479.03c-35.72,13.69-74.16,14.06-109.73,2.78-15.32-4.86-26.16-17.43-26.95-33.14-.56-11.11,4.53-21.27,12.21-27.15,8.89-6.81,21.43-10.87,31.62-5.93,12.93,6.27,25.15,9.08,39.71,8.41,38.55-1.76,59.01-29.73,61.11-67.4-14.49,14.13-31.14,19.6-50.03,19.56-28.42-.07-56.03-10.58-73.74-33.22-13.34-17.04-21.21-37.82-21.37-59.74l-.57-81.42c-.13-18.83,11.74-33.12,30.43-36.04,17.84-2.78,39.34,7.91,40.83,27.62l1.01,86.62c.25,21.55,17.61,36.37,39.07,35.69,19.96-.64,37.73-14.55,37.85-35.27l.5-82.66c.1-16.77,12.55-28.66,28.83-31.79,18.25-3.51,41.79,8.11,41.87,28.77l.54,136.18c.1,26.42-3.99,51.35-12.84,75.72-12.18,33.54-36.23,59.34-70.36,72.42Z"></path>
  <path class="st2" d="M501.11,375.29l-.71-109.73c-.08-12.92-4.5-25.32-13.97-33.95-11.05-10.08-26.09-12.83-40.55-10.7-23.59,3.47-40.08,21.96-40.23,45.9l-.72,109.08c-.11,17.33-15.65,29-32.26,30.68-18.55,1.88-39.54-10.94-39.57-31.32l-.38-280.45c-.03-21.21,16.57-35.83,37.58-35.11,16.03.58,34.08,10.98,34.32,28.39l1.36,98.12c21.77-24.39,51.27-34.65,82.26-29.91,49.65,5.72,84.75,46.78,84.76,95.57l.02,122.33c0,20.97-21.34,34.78-41.02,32.18-16.08-2.12-30.78-13.54-30.9-31.1Z"></path>
  <path class="st0" d="M852.28,329.64c-26.4,70.36-108.63,94.73-175.02,68.3-39.74-15.82-67.15-50.05-73.97-91.88-9.76-59.83,18.14-117.63,74.84-140.84,32.72-13.39,69.15-13.73,102.41-1.42,67.59,25,96.37,100.2,71.74,165.84ZM770.54,328.63c15.38-13.53,20.07-32.94,18.74-52.42-2.13-31.05-25.77-54.63-55.94-55.84s-55.93,20.87-59.98,51.54c-2.42,18.35.81,36.55,12.89,50.88,21.13,25.06,59.05,28.04,84.29,5.83Z"></path>
  <path class="st0" d="M260.77,396.22c-37.15,17.07-92.26,15.35-130.07-.08-11.54-4.71-21.82-10.15-30.53-18.68-13.96-13.68-14.07-34.84-.72-47.96,14.18-13.02,36.36-13.18,48.8,2.68,23.24,18.63,78.31,24.1,82.67,2.2,5.97-29.94-75.49-20.58-112.71-57.95-15.22-15.29-19.9-36.65-16.73-57.9,3.48-23.33,18.1-41.81,39.18-52.35,39.09-19.54,108.7-16.65,141.7,10.52,13.15,10.83,14.92,28.41,5.94,41.06-10.05,14.15-27.7,16.2-42.33,6.83-29.08-18.63-70.41-17.15-72.6,1.85-.78,6.78,3.48,11.72,9.73,14.8,20.02,9.88,50.7,11.44,81.89,27.35,22.45,11.45,36.84,31.62,38.2,56.67,1.69,31.17-14,57.92-42.42,70.98Z"></path>
  <path class="st0" d="M1523.69,372.37c-.06,21.91-19.62,35.93-40,34.18-17.98-1.54-32.3-14.94-32.32-33.49l-.18-146.45-16.59-.37c-15.51-.35-25.07-15.04-24.7-30.17.37-15.19,10.76-28.33,26.23-28.8l15.53-.47,1.74-33.06c7.87-60.57,68.74-80.08,124.14-66.76,9.91,2.38,17.77,9.9,21.11,16.8,5.22,10.8,4.38,21.85-.5,31.43s-15.91,16.8-26.97,14.25c-20.73-4.79-42.4-3.31-46.35,16.67l-.9,20.65,31.29,1.33c14.14,2.34,22.76,15.65,22.83,28.68s-8.47,26.43-22.77,28.89l-31.15.5-.42,146.18Z"></path>
  <path class="st0" d="M1231.21,340.68c12.87-6.57,26.49-2.73,33.57,9.66,5.17,9.03,7.1,19.63,2.88,30.64-10.69,27.95-63.43,30.49-93.07,22.91-37.09-9.49-53.86-39.57-53.92-77.21l-.17-100.49-19.85-.36c-14.31-2.61-23.32-15.34-23.29-29.06s9.66-27.33,24.27-29.33l18.84-.12.2-31.62c.12-19.24,15.18-31.75,33.92-32.56,19.03-.82,37.44,11.57,37.67,31.19l.38,32.53,36.35.26c19.07.14,33.57,12.59,32.62,31.94-.65,13.36-9.88,26.56-24.05,26.67l-45.05.37.28,96.19c.03,8.85,5.41,17.23,13.32,20.23,7.78,2.95,17.13,2.2,25.09-1.86Z"></path>
  <path class="st0" d="M960.94,263.48l-.65,112.42c-.09,15.21-12.27,25.79-26.63,29.66-18.6,5.02-44.12-6.83-44.09-28.41l.15-124.51c2.18-46.07,34.02-82.24,77.17-93.75,24.15-6.45,47.68-7.02,71.56.13,20.08,6.01,30.87,28.28,22.34,47.02-7.19,15.78-23.49,22.17-39.2,16.29-6.32-2.36-13.04-2.37-19.46-1.72-22.9,2.31-38.82,18.92-41.2,42.87Z"></path>
  <path class="st2" d="M1352.08,403.79c-11.68,4.62-22.91,4.08-33.63-2.31-7.55-4.49-16.63-13.91-16.6-25.65l.5-181.07c.05-17.1,18.18-27.72,33.44-28.48,19.28-.96,37.79,12.52,37.79,32.71l.04,176.63c0,13.29-9.98,23.58-21.55,28.16Z"></path>
  <path class="st1" d="M1375.52,96.63c4.12,12.84,2.05,25.44-5.81,36.33-6.31,8.75-18.11,14.9-30.97,15.33-15.31.52-29.01-7.33-36.23-19.59-7.55-12.84-6.96-29.04,1.62-41.88,8.41-12.59,23.67-18.83,38.92-16.69,13.84,1.94,27.54,11.18,32.47,26.5Z"></path>
</svg>